<?xml version="1.0" encoding="UTF-8" standalone="no"?>
<!-- Created with Inkscape (http://www.inkscape.org/) -->

<svg
   xmlns:dc="http://purl.org/dc/elements/1.1/"
   xmlns:cc="http://creativecommons.org/ns#"
   xmlns:rdf="http://www.w3.org/1999/02/22-rdf-syntax-ns#"
   xmlns:svg="http://www.w3.org/2000/svg"
   xmlns="http://www.w3.org/2000/svg"
   xmlns:sodipodi="http://sodipodi.sourceforge.net/DTD/sodipodi-0.dtd"
   xmlns:inkscape="http://www.inkscape.org/namespaces/inkscape"
   width="125mm"
   height="50mm"
   viewBox="0 0 125 50"
   version="1.1"
   id="svg8"
   inkscape:version="0.92.4 (5da689c313, 2019-01-14)"
   sodipodi:docname="center-positive.svg">
  <defs
     id="defs2" />
  <sodipodi:namedview
     id="base"
     pagecolor="#ffffff"
     bordercolor="#666666"
     borderopacity="1.0"
     inkscape:pageopacity="0.0"
     inkscape:pageshadow="2"
     inkscape:zoom="1.4"
     inkscape:cx="245.22947"
     inkscape:cy="70.789057"
     inkscape:document-units="mm"
     inkscape:current-layer="layer1"
     showgrid="false"
     inkscape:window-width="1920"
     inkscape:window-height="1147"
     inkscape:window-x="-8"
     inkscape:window-y="22"
     inkscape:window-maximized="1" />
  <metadata
     id="metadata5">
    <rdf:RDF>
      <cc:Work
         rdf:about="">
        <dc:format>image/svg+xml</dc:format>
        <dc:type
           rdf:resource="http://purl.org/dc/dcmitype/StillImage" />
        <dc:title></dc:title>
      </cc:Work>
    </rdf:RDF>
  </metadata>
  <g
     inkscape:label="Layer 1"
     inkscape:groupmode="layer"
     id="layer1"
     transform="translate(0,-247)">
    <path
       style="fill:#000000;stroke-width:0.09959009"
       d="m 17.433651,284.63296 c -3.066376,-0.37476 -5.43595,-1.50457 -7.4692573,-3.56133 -2.355274,-2.38244 -3.535448,-5.21058 -3.535448,-8.47226 0,-5.54096 3.6392423,-10.26421 9.0626983,-11.76217 5.375042,-1.4846 11.209878,1.08653 13.931081,6.13874 0.454086,0.84305 1.063479,2.60792 1.165157,3.37441 l 0.06712,0.50595 h 10.842491 10.84249 v -0.2317 c 0,-0.39633 0.571327,-2.27675 0.890786,-2.93187 0.167362,-0.34322 0.304295,-0.65005 0.304295,-0.68186 0,-0.0318 0.239191,-0.42323 0.531535,-0.86983 1.823597,-2.78579 4.24819,-4.539 7.420036,-5.3654 1.059472,-0.27603 1.304522,-0.30291 2.804152,-0.3076 1.21819,-0.004 1.84933,0.0403 2.43996,0.17054 1.52114,0.33542 2.76581,0.84759 3.95871,1.62899 l 0.67223,0.44034 v 1.64104 1.64105 l -0.50229,-0.47557 c -1.27514,-1.20731 -2.9967,-2.08446 -4.87557,-2.48417 -0.77285,-0.16441 -2.51916,-0.18286 -3.34288,-0.0353 -4.804805,0.86063 -8.361528,5.6424 -7.822716,10.51711 0.421739,3.81553 3.032382,7.06901 6.650252,8.28778 1.790034,0.60302 4.126214,0.54516 5.981744,-0.14816 1.21159,-0.45272 2.57182,-1.28474 3.45757,-2.11494 l 0.45389,-0.42541 v 1.63702 1.63702 l -0.63636,0.41461 c -0.8047,0.52428 -2.15249,1.11917 -3.25843,1.43822 -3.97911,1.14791 -8.413073,0.005 -11.532562,-2.97218 -1.682298,-1.60566 -2.843705,-3.57715 -3.395866,-5.76449 -0.163941,-0.64945 -0.298076,-1.3777 -0.298076,-1.61834 v -0.43753 h -7.602401 c -4.181321,0 -9.012453,0.0295 -10.735849,0.0655 l -3.133446,0.0655 -0.11817,0.86767 c -0.359671,2.64091 -1.98456,5.55574 -4.05123,7.26738 -1.451816,1.2024 -2.758522,1.91457 -4.458246,2.42978 -1.51794,0.46011 -3.376657,0.6542 -4.707397,0.49156 z m 3.485653,-2.66201 c 3.196441,-0.86168 5.725265,-3.23507 6.768382,-6.35239 1.688605,-5.04632 -0.933354,-10.4476 -5.927241,-12.21022 -1.214282,-0.42859 -2.156962,-0.55541 -3.652306,-0.49136 -2.513558,0.10768 -4.617247,1.06335 -6.375896,2.89648 -1.227364,1.27934 -2.0472783,2.76697 -2.4850173,4.50876 -0.268863,1.06982 -0.241283,3.50803 0.05223,4.61727 0.7027203,2.65573 2.4702353,4.89472 4.8975183,6.20389 0.745236,0.40195 1.932096,0.82343 2.703889,0.96021 0.798302,0.14147 3.309029,0.0586 4.018441,-0.13264 z m -8.409318,-9.22634 v -0.74557 h 6.188234 6.188235 v 0.74557 0.74557 H 18.69822 12.509986 Z m 92.264174,11.89546 c -1.80819,-0.26399 -2.87635,-0.56773 -4.18278,-1.18941 -2.887263,-1.37393 -5.316533,-4.14366 -6.258393,-7.13549 -0.25466,-0.80891 -0.56353,-2.36178 -0.56353,-2.83317 v -0.23632 l -12.31048,0.0253 -12.31048,0.0253 -0.20372,0.54775 c -0.29887,0.80355 -1.29851,1.77229 -2.16423,2.09732 -0.80672,0.30288 -1.88729,0.32654 -2.66521,0.0584 -1.0557,-0.36396 -2.12408,-1.45435 -2.43638,-2.48657 -0.204166,-0.67481 -0.15259,-2.01492 0.10242,-2.66128 0.31465,-0.79753 1.0777,-1.60861 1.88917,-2.00809 0.62504,-0.30771 0.73007,-0.3278 1.71364,-0.3278 0.87885,0 1.1268,0.0364 1.53781,0.22598 0.66701,0.30761 1.30506,0.8489 1.68403,1.42866 l 0.3157,0.48297 11.61185,0.002 c 6.38651,9.9e-4 12.013,-0.0267 12.5033,-0.0615 l 0.89146,-0.0633 0.12212,-0.64376 c 0.37145,-1.95813 1.63496,-4.22558 3.26427,-5.85798 4.646963,-4.65577 12.076153,-4.81128 16.890883,-0.35357 4.03593,3.73665 5.06906,9.57034 2.55924,14.45112 -1.67274,3.25295 -4.80869,5.58726 -8.50504,6.33091 -0.7143,0.1437 -2.95022,0.26095 -3.48565,0.18278 z m 3.53545,-2.67984 c 1.48009,-0.38965 3.37269,-1.50459 4.46922,-2.63284 1.26264,-1.29916 2.19868,-3.06069 2.55896,-4.81564 0.21585,-1.05149 0.21513,-2.94257 -0.001,-3.97446 -0.6935,-3.30294 -3.06097,-6.00855 -6.23924,-7.13034 -2.35884,-0.83257 -5.18892,-0.66143 -7.40238,0.44762 -2.069693,1.03701 -3.715453,2.80258 -4.629083,4.96605 -0.93529,2.21478 -0.92283,5.22516 0.031,7.49138 0.61454,1.46008 1.80678,3.00466 3.047723,3.9484 1.16471,0.88577 2.77018,1.60788 4.09845,1.84338 0.81613,0.14471 3.30574,0.0568 4.06687,-0.14355 z m -2.9416,-5.96277 v -2.85568 H 102.433 99.498007 v -0.87257 -0.87257 h 2.934993 2.93501 v -2.93501 -2.935 h 0.79325 0.79324 v 2.935 2.93501 h 2.93499 2.93501 v 0.87257 0.87257 h -2.93501 -2.93499 v 2.85568 2.85568 h -0.79324 -0.79325 z"
       id="path826"
       inkscape:connector-curvature="0"
       sodipodi:nodetypes="cssssscccscscsccsccccccssscccccsccscsccssscccssssscsscccccccccccscscccsscccsscscscccsccccccsccssccscccccccccccccccccccccccccccc" />
  </g>
</svg>
