<?xml version="1.0" encoding="UTF-8" standalone="no"?>
<!-- Generator: Fusion 360, Shaper Origin Export Add-In, Version 1.5.0  -->

<svg
   xmlns:shaper="http://www.shapertools.com/namespaces/shaper"
   xmlns:dc="http://purl.org/dc/elements/1.1/"
   xmlns:cc="http://creativecommons.org/ns#"
   xmlns:rdf="http://www.w3.org/1999/02/22-rdf-syntax-ns#"
   xmlns:svg="http://www.w3.org/2000/svg"
   xmlns="http://www.w3.org/2000/svg"
   xmlns:sodipodi="http://sodipodi.sourceforge.net/DTD/sodipodi-0.dtd"
   xmlns:inkscape="http://www.inkscape.org/namespaces/inkscape"
   enable-background="new 0 0 12.85 2"
   height="128.5mm"
   shaper:fusionaddin="version:1.5.0"
   version="1.1"
   viewBox="0 0 2 12.85"
   width="20mm"
   x="0cm"
   xml:space="preserve"
   y="0cm"
   id="svg867"
   sodipodi:docname="panel.svg"
   inkscape:version="0.92.4 (5da689c313, 2019-01-14)"><metadata
     id="metadata873"><rdf:RDF><cc:Work
         rdf:about=""><dc:format>image/svg+xml</dc:format><dc:type
           rdf:resource="http://purl.org/dc/dcmitype/StillImage" /><dc:title></dc:title></cc:Work></rdf:RDF></metadata><defs
     id="defs871" /><sodipodi:namedview
     pagecolor="#ffffff"
     bordercolor="#666666"
     borderopacity="1"
     objecttolerance="10"
     gridtolerance="10"
     guidetolerance="10"
     inkscape:pageopacity="0"
     inkscape:pageshadow="2"
     inkscape:window-width="1920"
     inkscape:window-height="1147"
     id="namedview869"
     showgrid="false"
     units="mm"
     inkscape:zoom="1.4824902"
     inkscape:cx="213.18767"
     inkscape:cy="217.59047"
     inkscape:window-x="-8"
     inkscape:window-y="22"
     inkscape:window-maximized="1"
     inkscape:current-layer="svg867" /><g
     id="g866"><g
       id="text4584-8-0"
       style="font-style:normal;font-weight:normal;font-size:1.05833316px;line-height:1.25;font-family:sans-serif;text-align:end;letter-spacing:0px;word-spacing:0px;text-anchor:end;fill:#000000;fill-opacity:1;stroke:none;stroke-width:0.02645833"
       aria-label="-12V"><path
         inkscape:connector-curvature="0"
         transform="scale(0.02645833)"
         id="path4699"
         d="M 0.09765625,94.457031 V 109.57617 H 50.806641 c 4.711177,0 8.503906,-3.37283 8.503906,-7.56055 0,-4.187688 -3.792729,-7.558589 -8.503906,-7.558589 z M 41.638672,95.96875 a 6.04785,6.04785 0 1 1 0,12.0957 6.04785,6.04785 0 1 1 0,-12.0957 z m -18.279297,2.185547 c 0.364583,0 0.690322,0.0496 0.978516,0.150391 0.291666,0.100785 0.541233,0.246179 0.746093,0.433593 0.204851,0.183937 0.361102,0.407888 0.46875,0.671875 0.111118,0.263887 0.166016,0.560775 0.166016,0.890624 0,0.29861 -0.05209,0.58506 -0.15625,0.85938 -0.104164,0.27084 -0.247176,0.53689 -0.427734,0.80078 -0.180561,0.26041 -0.389327,0.52277 -0.628907,0.7832 -0.236119,0.25693 -0.490895,0.51779 -0.761718,0.78516 l -0.916016,0.92187 v 0.0742 h 3.103516 v 1.35352 h -5.109375 v -1.1211 l 1.792968,-1.93164 c 0.225689,-0.24315 0.429249,-0.4671 0.613282,-0.67187 0.184037,-0.20485 0.342673,-0.40517 0.474609,-0.59961 0.131956,-0.19452 0.233746,-0.39243 0.306641,-0.59375 0.07292,-0.20133 0.109375,-0.4177 0.109375,-0.65039 0,-0.25694 -0.07813,-0.457227 -0.234375,-0.599612 -0.152769,-0.142363 -0.358714,-0.212891 -0.619141,-0.212891 -0.274306,0 -0.537543,0.06782 -0.791016,0.203125 -0.253472,0.135307 -0.519097,0.328018 -0.796875,0.578128 l -0.875,-1.037112 c 0.156246,-0.142363 0.318137,-0.277774 0.488282,-0.40625 0.170129,-0.132032 0.357629,-0.247121 0.5625,-0.347657 0.20485,-0.100787 0.431195,-0.181273 0.677734,-0.240234 0.246526,-0.06249 0.522568,-0.09375 0.828125,-0.09375 z m -5.90625,0.109375 h 1.322266 v 7.615238 h -1.609375 v -4.40625 -0.32227 c 0.0035,-0.1285 0.0082,-0.2611 0.01172,-0.39648 0.0069,-0.13884 0.01215,-0.27708 0.01563,-0.41602 0.0069,-0.13883 0.01215,-0.26621 0.01563,-0.380859 -0.01736,0.02083 -0.04817,0.0521 -0.08984,0.09375 -0.04168,0.0416 -0.08854,0.0885 -0.140625,0.14063 -0.05208,0.0486 -0.104598,0.0982 -0.160157,0.15039 -0.05556,0.0521 -0.110027,0.099 -0.162109,0.14062 l -0.875,0.70313 L 15,100.2168 Z m 8.818359,0 h 1.628907 l 1.433593,4.531248 c 0.07985,0.26737 0.16079,0.57986 0.244141,0.9375 0.0868,0.35417 0.141272,0.60135 0.162109,0.74024 0.0382,-0.31945 0.168407,-0.87912 0.390625,-1.67774 l 1.441407,-4.531248 h 1.630859 l -2.587891,7.615238 h -1.761718 z m -15.09375,3.791018 h 2.796875 v 1.30273 h -2.796875 z"
         style="font-style:normal;font-variant:normal;font-weight:bold;font-stretch:normal;font-size:0.28222221px;font-family:'Noto Sans';-inkscape-font-specification:'Noto Sans Bold';text-align:end;text-anchor:end;fill:#0105ff;fill-opacity:1;stroke-width:0.99999988" /></g><g
       id="text4584-8"
       style="font-style:normal;font-weight:normal;font-size:1.05833316px;line-height:1.25;font-family:sans-serif;text-align:end;letter-spacing:0px;word-spacing:0px;text-anchor:end;fill:#000000;fill-opacity:1;stroke:none;stroke-width:0.02645833"
       aria-label="+12V"><path
         inkscape:connector-curvature="0"
         transform="scale(0.02645833)"
         id="path4690"
         d="M 0.09765625,72.876953 V 87.994141 H 50.806641 c 4.711177,0 8.503906,-3.370882 8.503906,-7.558594 0,-4.187717 -3.792729,-7.558594 -8.503906,-7.558594 z M 41.638672,74.388672 a 6.0472441,6.0472441 0 1 1 0,12.09375 6.0472441,6.0472441 0 0 1 0,-12.09375 z m -18.279297,2.185547 c 0.364583,0 0.690322,0.0496 0.978516,0.15039 0.291666,0.100788 0.541233,0.244227 0.746093,0.431641 0.204851,0.183937 0.361102,0.407888 0.46875,0.671875 0.111118,0.263887 0.166016,0.560748 0.166016,0.890625 0,0.298608 -0.05209,0.585057 -0.15625,0.859375 -0.104164,0.270841 -0.247176,0.538848 -0.427734,0.802734 -0.180561,0.26041 -0.389327,0.520816 -0.628907,0.78125 -0.236119,0.256933 -0.490895,0.519746 -0.761718,0.78711 l -0.916016,0.921875 v 0.07227 h 3.103516 v 1.353516 h -5.109375 v -1.119141 l 1.792968,-1.93164 c 0.225689,-0.24315 0.429249,-0.4671 0.613282,-0.671875 0.184037,-0.204851 0.342676,-0.405166 0.474609,-0.59961 0.131956,-0.194519 0.233746,-0.392427 0.306641,-0.59375 0.07292,-0.201322 0.109375,-0.417697 0.109375,-0.65039 0,-0.256933 -0.07813,-0.457222 -0.234375,-0.59961 -0.152769,-0.142362 -0.358714,-0.21289 -0.619141,-0.21289 -0.274306,0 -0.537543,0.06782 -0.791016,0.203125 -0.253472,0.135307 -0.519097,0.328021 -0.796875,0.578125 l -0.875,-1.03711 c 0.156246,-0.142362 0.318137,-0.277771 0.488282,-0.40625 0.170129,-0.132031 0.357629,-0.249074 0.5625,-0.349609 0.20485,-0.100787 0.431195,-0.179321 0.677734,-0.238281 0.246526,-0.06249 0.522568,-0.09375 0.828125,-0.09375 z m -5.90625,0.109375 h 1.322266 v 7.613281 h -1.609375 v -4.40625 -0.322266 c 0.0035,-0.128504 0.0082,-0.261101 0.01172,-0.396484 0.0069,-0.138835 0.01215,-0.27708 0.01563,-0.416016 0.0069,-0.138834 0.01215,-0.266213 0.01563,-0.380859 -0.01736,0.02083 -0.04817,0.05209 -0.08984,0.09375 -0.04168,0.04157 -0.08854,0.08847 -0.140625,0.140625 -0.05208,0.04863 -0.104598,0.100186 -0.160157,0.152344 -0.05556,0.05216 -0.110027,0.09905 -0.162109,0.140625 l -0.875,0.703125 L 15,78.636719 Z m 8.818359,0 h 1.628907 l 1.433593,4.53125 c 0.07985,0.267364 0.16079,0.579856 0.244141,0.9375 0.0868,0.354167 0.141272,0.599396 0.162109,0.738281 0.0382,-0.319446 0.168407,-0.877167 0.390625,-1.675781 l 1.441407,-4.53125 h 1.630859 l -2.587891,7.613281 h -1.761718 z m -15.359375,1.675781 h 1.140625 v 1.921875 h 1.90625 v 1.140625 h -1.90625 v 1.896484 H 10.912109 V 81.421875 H 9 V 80.28125 h 1.912109 z"
         style="font-style:normal;font-variant:normal;font-weight:bold;font-stretch:normal;font-size:0.28222221px;font-family:'Noto Sans';-inkscape-font-specification:'Noto Sans Bold';text-align:end;text-anchor:end;fill:#0105ff;fill-opacity:1;stroke-width:0.99999988" /></g><path
       style="vector-effect:non-scaling-stroke;fill:none;stroke:#000000"
       inkscape:connector-curvature="0"
       id="path847"
       shaper:pathType="interior"
       shaper:cutDepth="0"
       d="m 1.1016667,2.8591874 a 0.16,0.16 0 1 0 0,-0.32 0.16,0.16 0 1 0 0,0.32 z" /><path
       style="vector-effect:non-scaling-stroke;fill:none;stroke:#000000"
       inkscape:connector-curvature="0"
       id="path849"
       shaper:pathType="interior"
       shaper:cutDepth="0"
       d="m 1.1016667,2.2881874 a 0.16,0.16 0 1 0 0,-0.32 0.16,0.16 0 1 0 0,0.32 z" /><path
       style="vector-effect:non-scaling-stroke;fill:#ffffff;stroke:#000000"
       inkscape:connector-curvature="0"
       id="path853"
       shaper:pathType="interior"
       shaper:cutDepth="0"
       d="M 1.3466667,12.072187 H 0.65666667 v -1.75 H 1.3466667 Z" /><path
       style="vector-effect:non-scaling-stroke;fill:#ffffff;stroke:#000000"
       inkscape:connector-curvature="0"
       id="path855"
       shaper:pathType="interior"
       shaper:cutDepth="0"
       d="m 0.99666667,10.017187 h -0.92 V 8.8971877 h 0.92 z" /><path
       style="vector-effect:non-scaling-stroke;fill:#ffffff;stroke:#000000"
       inkscape:connector-curvature="0"
       id="path857"
       shaper:pathType="interior"
       shaper:cutDepth="0"
       d="m 0.33666667,8.6871877 a 0.11,0.11 0 1 0 0,-0.22 0.11,0.11 0 1 0 0,0.22 z" /><path
       style="vector-effect:non-scaling-stroke;fill:#ffffff;stroke:#000000"
       inkscape:connector-curvature="0"
       id="path859"
       shaper:pathType="interior"
       shaper:cutDepth="0"
       d="m 1.6716667,5.3421877 a 0.11,0.11 0 1 0 0,-0.22 0.11,0.11 0 1 0 0,0.22 z" /><path
       style="vector-effect:non-scaling-stroke;fill:#ffffff;stroke:#000000"
       inkscape:connector-curvature="0"
       id="path861"
       shaper:pathType="interior"
       shaper:cutDepth="0"
       d="m 1.6716667,1.1521874 a 0.11000002,0.11000002 0 1 0 0,-0.22000005 0.11000003,0.11000003 0 1 0 0,0.22000005 z" /><path
       style="vector-effect:non-scaling-stroke;fill:#ffffff;stroke:#000000"
       inkscape:connector-curvature="0"
       id="path863"
       shaper:pathType="interior"
       shaper:cutDepth="0"
       d="m 0.75166667,12.707187 a 0.16,0.16 0 0 1 0,-0.32 h 0.19999998 a 0.16,0.16 0 0 1 0,0.32 z" /><path
       style="vector-effect:non-scaling-stroke;fill:#ffffff;stroke:#000000"
       inkscape:connector-curvature="0"
       id="path865"
       shaper:pathType="interior"
       shaper:cutDepth="0"
       d="m 0.75166667,0.45718735 a 0.16,0.16 0 0 1 0,-0.32 h 0.19999998 a 0.16,0.16 0 0 1 0,0.32 z" /><rect
       y="-0.0050004232"
       x="0.0049999999"
       height="12.85"
       width="2"
       id="rect4580"
       style="fill:none;fill-opacity:0.78431373;stroke:#000000;stroke-width:0.01;stroke-miterlimit:4;stroke-dasharray:none;stroke-opacity:1" /><g
       id="text4584"
       style="font-style:normal;font-weight:normal;font-size:1.05833316px;line-height:1.25;font-family:sans-serif;text-align:end;letter-spacing:0px;word-spacing:0px;text-anchor:end;fill:#000000;fill-opacity:1;stroke:none;stroke-width:0.02645833"
       aria-label="+5V"><path
         inkscape:connector-curvature="0"
         id="path4683"
         transform="scale(0.02645833)"
         d="m 0.03710937,51.294922 v 15.11914 H 50.806641 c 4.711178,0 8.503906,-3.372833 8.503906,-7.560546 0,-4.187717 -3.792728,-7.558594 -8.503906,-7.558594 z M 41.638672,52.806641 a 6.0478515,6.0478515 0 0 1 0,12.095703 6.0478515,6.0478515 0 1 1 0,-12.095703 z m -15.367188,2.1875 h 1.628907 l 1.433593,4.53125 c 0.07985,0.267363 0.16079,0.579856 0.244141,0.9375 0.0868,0.354167 0.141272,0.601349 0.162109,0.740234 0.0382,-0.319446 0.168407,-0.87912 0.390625,-1.677734 l 1.441407,-4.53125 h 1.630859 l -2.587891,7.615234 h -1.761718 z m -4.990234,0.002 h 4.021484 v 1.363281 h -2.625 l -0.125,1.496094 c 0.111118,-0.0243 0.238939,-0.04989 0.384766,-0.07422 0.149317,-0.0243 0.339638,-0.03516 0.572266,-0.03516 v -0.002 c 0.326387,0 0.630857,0.05156 0.912109,0.152343 0.28125,0.100788 0.526042,0.247063 0.734375,0.441407 0.208328,0.194519 0.372172,0.438865 0.490234,0.730468 0.118048,0.288202 0.175782,0.619161 0.175782,0.994141 0,0.413203 -0.06293,0.785382 -0.191407,1.115234 -0.128478,0.3264 -0.318366,0.602866 -0.568359,0.832032 -0.250003,0.225763 -0.560116,0.400035 -0.931641,0.521484 -0.368055,0.121449 -0.792318,0.181641 -1.271484,0.181641 -0.190967,0 -0.380854,-0.008 -0.568359,-0.02539 -0.18749,-0.01736 -0.367395,-0.04333 -0.541016,-0.07813 -0.170129,-0.03124 -0.333974,-0.07284 -0.490234,-0.125 -0.152769,-0.05216 -0.291007,-0.112349 -0.416016,-0.181641 V 60.9121 c 0.121524,0.06954 0.26215,0.134778 0.421875,0.197266 0.159723,0.05896 0.324001,0.111148 0.494141,0.15625 0.173606,0.04158 0.347868,0.07555 0.521484,0.103516 0.173606,0.0243 0.337885,0.03711 0.494141,0.03711 0.465277,0 0.819443,-0.09612 1.0625,-0.287109 0.243048,-0.19452 0.365234,-0.501819 0.365234,-0.921875 0,-0.375005 -0.119803,-0.659072 -0.359375,-0.853516 -0.23612,-0.197795 -0.60309,-0.296875 -1.099609,-0.296875 -0.09028,0 -0.186852,0.0052 -0.291016,0.01563 -0.100687,0.01042 -0.202023,0.02372 -0.302734,0.04102 -0.09723,0.01736 -0.190995,0.03766 -0.28125,0.05859 -0.09028,0.01736 -0.16841,0.03571 -0.234375,0.05664 L 20.994141,58.875 Z m -4.494141,1.675781 h 1.140625 v 1.921875 h 1.90625 v 1.140625 h -1.90625 v 1.896484 H 16.787109 V 59.734375 H 14.875 V 58.59375 h 1.912109 z"
         style="font-style:normal;font-variant:normal;font-weight:bold;font-stretch:normal;font-size:0.28222221px;font-family:'Noto Sans';-inkscape-font-specification:'Noto Sans Bold';text-align:end;text-anchor:end;fill:#0105ff;fill-opacity:1;stroke-width:0.99999988" /></g><path
       style="vector-effect:non-scaling-stroke;fill:none;stroke:#000000"
       inkscape:connector-curvature="0"
       id="path851"
       shaper:pathType="interior"
       shaper:cutDepth="0"
       d="m 1.1016667,1.7171874 a 0.16,0.16 0 1 0 0,-0.32 0.16,0.16 0 1 0 0,0.32 z" /><g
       transform="translate(0,0.01261989)"
       id="text4738"
       style="font-style:normal;font-weight:normal;font-size:1.05833316px;line-height:1.25;font-family:sans-serif;letter-spacing:0px;word-spacing:0px;fill:#0105ff;fill-opacity:1;stroke:none;stroke-width:0.02645833"
       aria-label="+15VDC"><path
         inkscape:connector-curvature="0"
         id="path4754"
         style="font-style:normal;font-variant:normal;font-weight:bold;font-stretch:normal;font-size:0.21166667px;font-family:'Noto Sans';-inkscape-font-specification:'Noto Sans Bold';fill:#0105ff;fill-opacity:1;stroke-width:0.02645833"
         d="m 1.1422296,9.2332133 h -0.037931 v -0.022634 h 0.037931 v -0.038137 h 0.022634 v 0.038137 h 0.037827 v 0.022634 h -0.037827 v 0.037621 h -0.022634 z" /><path
         inkscape:connector-curvature="0"
         id="path4756"
         style="font-style:normal;font-variant:normal;font-weight:bold;font-stretch:normal;font-size:0.21166667px;font-family:'Noto Sans';-inkscape-font-specification:'Noto Sans Bold';fill:#0105ff;fill-opacity:1;stroke-width:0.02645833"
         d="m 1.2982925,9.2902641 h -0.031936 v -0.087436 q 0,-0.00269 0,-0.00641 1.034e-4,-0.00382 2.067e-4,-0.00785 2.067e-4,-0.00413 3.101e-4,-0.00827 2.067e-4,-0.00413 3.101e-4,-0.00754 -5.168e-4,6.201e-4 -0.00176,0.00186 -0.00124,0.00124 -0.00279,0.00279 -0.00155,0.00145 -0.0032,0.003 -0.00165,0.00155 -0.0032,0.00279 l -0.017363,0.013953 -0.015503,-0.019224 0.048679,-0.038757 h 0.026252 z" /><path
         inkscape:connector-curvature="0"
         id="path4758"
         style="font-style:normal;font-variant:normal;font-weight:bold;font-stretch:normal;font-size:0.21166667px;font-family:'Noto Sans';-inkscape-font-specification:'Noto Sans Bold';fill:#0105ff;fill-opacity:1;stroke-width:0.02645833"
         d="m 1.3922402,9.1937326 q 0.00972,0 0.018087,0.003 0.00837,0.003 0.014573,0.00878 0.0062,0.00579 0.00972,0.014469 0.00351,0.00858 0.00351,0.01974 0,0.012299 -0.00382,0.022118 -0.00382,0.00972 -0.011265,0.016536 -0.00744,0.00672 -0.0185,0.010335 -0.010955,0.00362 -0.025218,0.00362 -0.00568,0 -0.011265,-5.168e-4 -0.00558,-5.167e-4 -0.010749,-0.00155 -0.00506,-9.301e-4 -0.00972,-0.00248 -0.00455,-0.00155 -0.00827,-0.00362 v -0.027595 q 0.00362,0.00207 0.00837,0.00393 0.00475,0.00176 0.00982,0.0031 0.00517,0.00124 0.010335,0.00207 0.00517,7.235e-4 0.00982,7.235e-4 0.013849,0 0.021084,-0.00568 0.00723,-0.00579 0.00723,-0.018293 0,-0.011162 -0.00713,-0.01695 -0.00703,-0.00589 -0.021807,-0.00589 -0.00269,0 -0.00579,3.1e-4 -0.003,3.101e-4 -0.00599,8.268e-4 -0.00289,5.168e-4 -0.00558,0.00114 -0.00269,5.168e-4 -0.00465,0.00114 l -0.012712,-0.00682 0.00568,-0.076998 h 0.079788 v 0.027079 h -0.05209 l -0.00248,0.029662 q 0.00331,-7.235e-4 0.00765,-0.00145 0.00444,-7.234e-4 0.011369,-7.234e-4 z" /><path
         inkscape:connector-curvature="0"
         id="path4760"
         style="font-style:normal;font-variant:normal;font-weight:bold;font-stretch:normal;font-size:0.21166667px;font-family:'Noto Sans';-inkscape-font-specification:'Noto Sans Bold';fill:#0105ff;fill-opacity:1;stroke-width:0.02645833"
         d="m 1.5522305,9.1391622 h 0.032349 L 1.5332135,9.2902641 H 1.4982803 L 1.4470173,9.1391622 h 0.032349 l 0.028422,0.089917 q 0.00238,0.00796 0.00486,0.018604 0.00258,0.010542 0.0032,0.014676 0.00114,-0.00951 0.00775,-0.03328 z" /><path
         inkscape:connector-curvature="0"
         id="path4762"
         style="font-style:normal;font-variant:normal;font-weight:bold;font-stretch:normal;font-size:0.21166667px;font-family:'Noto Sans';-inkscape-font-specification:'Noto Sans Bold';fill:#0105ff;fill-opacity:1;stroke-width:0.02645833"
         d="m 1.7290672,9.2132662 q 0,0.03731 -0.021291,0.057154 -0.021187,0.019844 -0.061288,0.019844 h -0.042788 v -0.151102 h 0.047439 q 0.037,0 0.057464,0.019534 0.020464,0.019534 0.020464,0.05457 z m -0.03328,8.269e-4 q 0,-0.048679 -0.042995,-0.048679 h -0.017053 v 0.098392 h 0.013746 q 0.046302,0 0.046302,-0.049713 z" /><path
         inkscape:connector-curvature="0"
         id="path4764"
         style="font-style:normal;font-variant:normal;font-weight:bold;font-stretch:normal;font-size:0.21166667px;font-family:'Noto Sans';-inkscape-font-specification:'Noto Sans Bold';fill:#0105ff;fill-opacity:1;stroke-width:0.02645833"
         d="m 1.8245653,9.1636569 q -0.018087,0 -0.028009,0.013643 -0.00992,0.013539 -0.00992,0.037827 0,0.05054 0.03793,0.05054 0.015916,0 0.038551,-0.00796 v 0.026872 q -0.018603,0.00775 -0.041548,0.00775 -0.03297,0 -0.050436,-0.019947 -0.017467,-0.02005 -0.017467,-0.057464 0,-0.023564 0.00858,-0.041238 0.00858,-0.017777 0.024598,-0.027182 0.016123,-0.00951 0.037724,-0.00951 0.022014,0 0.044235,0.010645 l -0.010335,0.026045 q -0.00847,-0.00403 -0.017053,-0.00703 -0.00858,-0.003 -0.016846,-0.003 z" /></g><g
       style="fill:#0105ff;fill-opacity:1"
       inkscape:label="Layer 1"
       id="layer1"
       transform="matrix(0.00697825,0,0,0.00697825,1.058664,7.5693112)"><path
         style="fill:#0105ff;fill-opacity:1;stroke-width:0.09959009"
         d="m 16.47457,284.95265 c -3.066376,-0.37476 -5.43595,-1.50457 -7.4692575,-3.56133 -2.355274,-2.38244 -3.535448,-5.21058 -3.535448,-8.47226 0,-5.54096 3.6392423,-10.26421 9.0626985,-11.76217 5.375042,-1.4846 11.209878,1.08653 13.931081,6.13874 0.454086,0.84305 1.063479,2.60792 1.165157,3.37441 l 0.06712,0.50595 h 10.842491 10.84249 v -0.2317 c 0,-0.39633 0.571327,-2.27675 0.890786,-2.93187 0.167362,-0.34322 0.304295,-0.65005 0.304295,-0.68186 0,-0.0318 0.239191,-0.42323 0.531535,-0.86983 1.823597,-2.78579 4.24819,-4.539 7.420036,-5.3654 1.059472,-0.27603 1.304522,-0.30291 2.804152,-0.3076 1.21819,-0.004 1.84933,0.0403 2.43996,0.17054 1.52114,0.33542 2.76581,0.84759 3.95871,1.62899 l 0.67223,0.44034 v 1.64104 1.64105 l -0.50229,-0.47557 c -1.27514,-1.20731 -2.9967,-2.08446 -4.87557,-2.48417 -0.77285,-0.16441 -2.51916,-0.18286 -3.34288,-0.0353 -4.804805,0.86063 -8.361528,5.6424 -7.822716,10.51711 0.421739,3.81553 3.032382,7.06901 6.650252,8.28778 1.790034,0.60302 4.126214,0.54516 5.981744,-0.14816 1.21159,-0.45272 2.57182,-1.28474 3.45757,-2.11494 l 0.45389,-0.42541 v 1.63702 1.63702 l -0.63636,0.41461 c -0.8047,0.52428 -2.15249,1.11917 -3.25843,1.43822 -3.97911,1.14791 -8.413073,0.005 -11.532562,-2.97218 -1.682298,-1.60566 -2.843705,-3.57715 -3.395866,-5.76449 -0.163941,-0.64945 -0.298076,-1.3777 -0.298076,-1.61834 v -0.43753 h -7.602401 c -4.181321,0 -9.012453,0.0295 -10.735849,0.0655 l -3.133446,0.0655 -0.11817,0.86767 c -0.359671,2.64091 -1.98456,5.55574 -4.05123,7.26738 -1.451816,1.2024 -2.758522,1.91457 -4.458246,2.42978 -1.51794,0.46011 -3.376657,0.6542 -4.707397,0.49156 z m 3.485653,-2.66201 c 3.196441,-0.86168 5.725265,-3.23507 6.768382,-6.35239 1.688605,-5.04632 -0.933354,-10.4476 -5.927241,-12.21022 -1.214282,-0.42859 -2.156962,-0.55541 -3.652306,-0.49136 -2.513558,0.10768 -4.617247,1.06335 -6.375896,2.89648 -1.2273642,1.27934 -2.0472785,2.76697 -2.4850175,4.50876 -0.268863,1.06982 -0.241283,3.50803 0.05223,4.61727 0.7027203,2.65573 2.4702355,4.89472 4.8975185,6.20389 0.745236,0.40195 1.932096,0.82343 2.703889,0.96021 0.798302,0.14147 3.309029,0.0586 4.018441,-0.13264 z m -8.409318,-9.22634 v -0.74557 h 6.188234 6.188235 v 0.74557 0.74557 h -6.188235 -6.188234 z m 92.264175,11.89546 c -1.80819,-0.26399 -2.87635,-0.56773 -4.182781,-1.18941 -2.887263,-1.37393 -5.316533,-4.14366 -6.258393,-7.13549 -0.25466,-0.80891 -0.56353,-2.36178 -0.56353,-2.83317 v -0.23632 l -12.31048,0.0253 -12.31048,0.0253 -0.20372,0.54775 c -0.29887,0.80355 -1.29851,1.77229 -2.16423,2.09732 -0.80672,0.30288 -1.88729,0.32654 -2.66521,0.0584 -1.0557,-0.36396 -2.12408,-1.45435 -2.43638,-2.48657 -0.204166,-0.67481 -0.15259,-2.01492 0.10242,-2.66128 0.31465,-0.79753 1.0777,-1.60861 1.88917,-2.00809 0.62504,-0.30771 0.73007,-0.3278 1.71364,-0.3278 0.87885,0 1.1268,0.0364 1.53781,0.22598 0.66701,0.30761 1.30506,0.8489 1.68403,1.42866 l 0.3157,0.48297 11.61185,0.002 c 6.38651,9.9e-4 12.013,-0.0267 12.5033,-0.0615 l 0.89146,-0.0633 0.12212,-0.64376 c 0.37145,-1.95813 1.63496,-4.22558 3.26427,-5.85798 4.646964,-4.65577 12.076154,-4.81128 16.890884,-0.35357 4.03593,3.73665 5.06906,9.57034 2.55924,14.45112 -1.67274,3.25295 -4.80869,5.58726 -8.50504,6.33091 -0.7143,0.1437 -2.95022,0.26095 -3.48565,0.18278 z m 3.53545,-2.67984 c 1.48009,-0.38965 3.37269,-1.50459 4.46922,-2.63284 1.26264,-1.29916 2.19868,-3.06069 2.55896,-4.81564 0.21585,-1.05149 0.21513,-2.94257 -0.001,-3.97446 -0.6935,-3.30294 -3.06097,-6.00855 -6.23924,-7.13034 -2.35884,-0.83257 -5.18892,-0.66143 -7.40238,0.44762 -2.069694,1.03701 -3.715454,2.80258 -4.629084,4.96605 -0.93529,2.21478 -0.92283,5.22516 0.031,7.49138 0.61454,1.46008 1.80678,3.00466 3.047723,3.9484 1.164711,0.88577 2.770181,1.60788 4.098451,1.84338 0.81613,0.14471 3.30574,0.0568 4.06687,-0.14355 z m -2.9416,-5.96277 v -2.85568 h -2.93501 -2.934994 v -0.87257 -0.87257 h 2.934994 2.93501 v -2.93501 -2.935 h 0.79325 0.79324 v 2.935 2.93501 h 2.93499 2.93501 v 0.87257 0.87257 h -2.93501 -2.93499 v 2.85568 2.85568 h -0.79324 -0.79325 z"
         id="path826"
         inkscape:connector-curvature="0"
         sodipodi:nodetypes="cssssscccscscsccsccccccssscccccsccscsccssscccssssscsscccccccccccscscccsscccsscscscccsccccccsccssccscccccccccccccccccccccccccccc" /></g></g></svg>